<?xml version="1.0" encoding="UTF-8"?>
<svg version="1.1" xmlns="http://www.w3.org/2000/svg" width="1600" height="1600">
<path d="M0 0 C81.18 0 162.36 0 246 0 C246 25.74 246 51.48 246 78 C190.89 78 135.78 78 79 78 C79 94.5 79 111 79 128 C84.023396 127.99476318 89.04679199 127.98952637 94.22241211 127.98413086 C110.77471424 127.96759983 127.32701669 127.95647991 143.87932491 127.94818783 C153.92012387 127.94302442 163.96091503 127.93598088 174.00170898 127.92456055 C182.74995302 127.91461507 191.49819141 127.9081469 200.24644095 127.90591151 C204.88154999 127.90460417 209.51664287 127.90151685 214.15174675 127.89426994 C218.50925479 127.88751187 222.86673992 127.8853826 227.2242527 127.88689232 C228.82832844 127.88661589 230.43240491 127.88460951 232.03647614 127.88079453 C234.2169273 127.87586059 236.39729057 127.87700058 238.57774353 127.87974548 C239.80096282 127.87882369 241.02418211 127.8779019 242.28446865 127.87695217 C245 128 245 128 246 129 C246.09998672 131.56488665 246.134409 134.10291065 246.12698364 136.66833496 C246.12854363 137.48111074 246.13010362 138.29388652 246.13171089 139.13129187 C246.13572428 141.87595739 246.13252994 144.62056836 246.12939453 147.36523438 C246.13074842 149.32432589 246.13252828 151.28341716 246.13470459 153.24250793 C246.13928038 158.57912884 246.13748877 163.9157305 246.1343255 169.25235176 C246.13180265 174.82395608 246.13413923 180.3955587 246.13571167 185.96716309 C246.13753359 195.32560524 246.13512648 204.68403951 246.13037109 214.04248047 C246.12492843 224.87893413 246.12669107 235.71536898 246.1321975 246.55182219 C246.13672801 255.83755769 246.13737948 265.12328751 246.13475883 274.40902376 C246.13319571 279.96296783 246.13300324 285.51690305 246.13629532 291.07084656 C246.13917313 296.29100619 246.13720001 301.51114146 246.13140106 306.73129845 C246.13007298 308.65304715 246.13046839 310.57479788 246.13266373 312.49654579 C246.13537335 315.10828039 246.13199643 317.71993558 246.12698364 320.33166504 C246.12921436 321.10236879 246.13144509 321.87307254 246.13374341 322.66713095 C246.11414984 327.88585016 246.11414984 327.88585016 245 329 C241.85235776 329.09807059 238.72663931 329.12990313 235.57859802 329.12025452 C234.57727327 329.12110894 233.57594852 329.12196337 232.54428059 329.12284368 C229.16158273 329.12450151 225.77893358 329.11897218 222.39624023 329.11352539 C219.98233033 329.11324356 217.56842035 329.11340118 215.1545105 329.1139679 C209.94342508 329.11419621 204.73235085 329.11134487 199.52126884 329.10573006 C191.9868371 329.09761716 184.45241143 329.09500005 176.91797579 329.09374207 C164.69506963 329.09155121 152.47217012 329.08489023 140.24926758 329.07543945 C128.37296583 329.06626619 116.4966659 329.05918494 104.62036133 329.05493164 C103.88881014 329.05466892 103.15725894 329.05440619 102.40353953 329.05413551 C98.73371272 329.05283051 95.06388589 329.05156679 91.39405906 329.05032361 C60.92936689 329.03994996 30.46468693 329.0215111 0 329 C0 302.93 0 276.86 0 250 C55.11 250 110.22 250 167 250 C166.67 236.14 166.34 222.28 166 208 C158.56364014 208.00785522 158.56364014 208.00785522 150.97705078 208.01586914 C134.63629939 208.03240483 118.29554768 208.04352198 101.95479012 208.05181217 C92.04293517 208.05697415 82.13108815 208.06401499 72.21923828 208.07543945 C63.58268601 208.08538928 54.94613948 208.09185414 46.30958164 208.09408849 C41.73424437 208.09539509 37.15892349 208.09847775 32.58359146 208.10573006 C28.28107221 208.11249497 23.97857616 208.11461599 19.67605209 208.11310768 C18.09335962 208.1133838 16.51066641 208.11538614 14.92797852 208.11920547 C12.77415116 208.12415006 10.62041248 208.12299544 8.46658325 208.12025452 C6.65526004 208.12163721 6.65526004 208.12163721 4.80734444 208.12304783 C2 208 2 208 0 207 C0 138.69 0 70.38 0 0 Z " fill="#EC393A" transform="translate(574,560)"/>
<path d="M0 0 C81.51 0 163.02 0 247 0 C247.04033135 82.27147083 247.04033135 82.27147083 247.04882812 116.54492188 C247.05078614 124.39054364 247.05280666 132.23616539 247.05493164 140.08178711 C247.05519539 141.06517404 247.05545914 142.04856096 247.05573088 143.06174749 C247.06008595 158.95950725 247.06797293 174.85726341 247.0771528 190.75502103 C247.08648831 207.05771453 247.09205539 223.36040614 247.09408849 239.66310221 C247.09546393 249.73120195 247.09981566 259.79929152 247.10791647 269.86738814 C247.11318267 276.76165661 247.11480458 283.6559198 247.11350138 290.55019014 C247.1128578 294.53402021 247.11387772 298.51783246 247.11920547 302.50165939 C247.12403959 306.14273671 247.12433857 309.78378405 247.12089889 313.42486269 C247.12027027 315.37862261 247.1246119 317.33238213 247.12908131 319.28613704 C247.12709026 320.43068184 247.12509921 321.57522664 247.12304783 322.75445461 C247.12342755 323.75046104 247.12380727 324.74646747 247.1241985 325.7726559 C247 328 247 328 246 329 C243.60190851 329.10027795 241.23260502 329.13618676 238.83398438 329.12939453 C238.08441971 329.13114685 237.33485504 329.13289917 236.56257629 329.13470459 C234.07294431 329.1391232 231.58338277 329.1361851 229.09375 329.1328125 C227.37121568 329.13348554 225.64868145 329.13445556 223.92614746 329.13571167 C220.31127012 329.13718865 216.69641745 329.13503407 213.08154297 329.13037109 C208.43733507 329.1246738 203.79318496 329.1279528 199.14897919 329.13394356 C195.59063274 329.13754916 192.0323001 329.13641059 188.47395325 329.13381577 C186.76105238 329.13314649 185.04815028 329.13397493 183.33525085 329.13629532 C180.94547178 329.13882183 178.55578759 329.1349813 176.16601562 329.12939453 C175.45117508 329.13141876 174.73633453 329.13344299 173.99983215 329.13552856 C169.11426269 329.11426269 169.11426269 329.11426269 168 328 C167.87499848 325.4755093 167.81396462 322.97700383 167.79467773 320.45092773 C167.78477814 319.66074249 167.77487854 318.87055725 167.76467896 318.056427 C167.73297152 315.43218022 167.70827021 312.80791531 167.68359375 310.18359375 C167.66303219 308.36897803 167.64203594 306.5543672 167.62062073 304.73976135 C167.56531759 299.9541518 167.5159448 295.16849844 167.46777344 290.3828125 C167.41761843 285.50321536 167.36190112 280.62368215 167.30664062 275.74414062 C167.19895832 266.16281498 167.09753587 256.58143392 167 247 C165.55379272 246.96241577 165.55379272 246.96241577 164.07836914 246.92407227 C160.51312158 246.83014694 156.94807567 246.72989061 153.38305664 246.62768555 C151.83785711 246.58428015 150.29260786 246.54260929 148.74731445 246.50268555 C146.53060904 246.44511801 144.3141552 246.38138576 142.09765625 246.31640625 C141.4028566 246.29969376 140.70805695 246.28298126 139.99220276 246.26576233 C135.11387171 246.11387171 135.11387171 246.11387171 134 245 C133.90501354 242.56603981 133.87441583 240.16057048 133.88647461 237.72631836 C133.88632858 236.96539383 133.88618256 236.2044693 133.8860321 235.42048645 C133.88673138 232.89357702 133.89452445 230.36674038 133.90234375 227.83984375 C133.90420788 226.0924941 133.9056318 224.34514393 133.90663147 222.59779358 C133.91045707 217.98968066 133.92028771 213.38159905 133.93133545 208.77349854 C133.94154866 204.07491479 133.9461289 199.37632601 133.95117188 194.67773438 C133.96190995 185.45180692 133.97950708 176.22591096 134 167 C145.22 167 156.44 167 168 167 C167.96447021 164.37498535 167.92894043 161.7499707 167.89233398 159.04541016 C167.77590115 150.38814806 167.66507587 141.7308208 167.5570364 133.07345009 C167.49133627 127.82268973 167.42372677 122.57196821 167.35180664 117.32128906 C167.28251493 112.25743861 167.21816951 107.19354759 167.15730476 102.12958908 C167.13316367 100.1942045 167.10721728 98.25884159 167.07946587 96.3235054 C167.04100524 93.62016441 167.00886975 90.91681868 166.97827148 88.21337891 C166.95885246 87.00389336 166.95885246 87.00389336 166.93904114 85.76997375 C166.88594784 80.22810432 166.88594784 80.22810432 168 78 C138.96 78 109.92 78 80 78 C80 107.04 80 136.08 80 166 C96.335 166.495 96.335 166.495 113 167 C113.02255146 177.15266547 113.04091534 187.30531443 113.05181217 197.45799923 C113.05704089 202.17179733 113.06413834 206.88557747 113.07543945 211.59936523 C113.08626873 216.14455404 113.09227692 220.68972552 113.09487724 225.23492622 C113.09673142 226.97294958 113.10035189 228.71097194 113.10573006 230.44898796 C113.11294103 232.87478595 113.11399092 235.30051146 113.11352539 237.72631836 C113.11712067 238.45208069 113.12071594 239.17784302 113.12442017 239.92559814 C113.11405216 244.88594784 113.11405216 244.88594784 112 246 C109.6243148 246.0883967 107.27791326 246.11530305 104.90234375 246.09765625 C103.83905602 246.09553383 103.83905602 246.09553383 102.75428772 246.09336853 C100.48198288 246.08775443 98.20977525 246.07519963 95.9375 246.0625 C94.40039204 246.05748681 92.86328255 246.05292359 91.32617188 246.04882812 C87.55074358 246.03778042 83.77538829 246.02050641 80 246 C80.00222061 247.02508163 80.00444122 248.05016327 80.00672913 249.10630798 C80.02696041 258.7450696 80.04197207 268.38382694 80.05181217 278.02260494 C80.05704103 282.97853922 80.06413874 287.93445642 80.07543945 292.89038086 C80.08626822 297.66898836 80.09227681 302.44757938 80.09487724 307.2261982 C80.09673151 309.05353619 80.10035216 310.88087324 80.10573006 312.70820427 C80.11294036 315.25853329 80.11399095 317.80879337 80.11352539 320.35913086 C80.11712067 321.12229614 80.12071594 321.88546143 80.12442017 322.67175293 C80.11405216 327.88594784 80.11405216 327.88594784 79 329 C76.57142965 329.10029857 74.17128387 329.13618425 71.7421875 329.12939453 C70.98286926 329.13114685 70.22355103 329.13289917 69.44122314 329.13470459 C66.91912584 329.1391233 64.39709807 329.13618506 61.875 329.1328125 C60.13004544 329.13348553 58.38509096 329.13445555 56.64013672 329.13571167 C52.97818105 329.13718867 49.31624972 329.13503403 45.65429688 329.13037109 C40.94955508 329.1246738 36.24487032 329.1279528 31.54013062 329.13394356 C27.93546109 329.13754912 24.33080518 329.13641061 20.72613525 329.13381577 C18.99090569 329.13314648 17.25567491 329.13397496 15.52044678 329.13629532 C13.09953513 329.13882177 10.67871714 329.13498138 8.2578125 329.12939453 C7.53362122 329.13141876 6.80942993 329.13344299 6.06329346 329.13552856 C1.11426266 329.11426266 1.11426266 329.11426266 0 328 C-0.09737417 326.25371659 -0.12371462 324.50345062 -0.12304783 322.75445461 C-0.12503888 321.60990982 -0.12702993 320.46536502 -0.12908131 319.28613704 C-0.12616847 318.01281884 -0.12325563 316.73950065 -0.12025452 315.42759705 C-0.1206901 314.07379927 -0.12156477 312.72000157 -0.12284368 311.36620432 C-0.12509118 307.6287368 -0.1210639 303.89129765 -0.11606562 300.15383375 C-0.11176494 296.12995551 -0.11320727 292.10607899 -0.1139679 288.0821991 C-0.11449338 281.10479793 -0.11134409 274.12740607 -0.10573006 267.15000725 C-0.09761828 257.06174123 -0.09500017 246.97347974 -0.09374207 236.88521082 C-0.09155104 220.51941859 -0.08488958 204.15363133 -0.07543945 187.7878418 C-0.06626665 171.88582382 -0.05919663 155.98380719 -0.05493164 140.08178711 C-0.05466364 139.09231412 -0.05439565 138.10284112 -0.05411953 137.0833841 C-0.05204022 129.34556534 -0.05008326 121.60774656 -0.04816496 113.86992776 C-0.03872372 75.91328061 -0.01860721 37.9566459 0 0 Z " fill="#EA3839" transform="translate(832,560)"/>
<path d="M0 0 C81.18 0 162.36 0 246 0 C246 108.57 246 217.14 246 329 C220.59 329 195.18 329 169 329 C167.25707823 327.25707823 167.88019697 324.99376505 167.87557983 322.67175293 C167.87917511 321.90858765 167.88277039 321.14542236 167.88647461 320.35913086 C167.88632858 319.55919205 167.88618256 318.75925323 167.8860321 317.93507385 C167.88673145 315.27830335 167.89452482 312.62160207 167.90234375 309.96484375 C167.90420785 308.12781309 167.90563179 306.29078194 167.90663147 304.45375061 C167.91045725 299.60890338 167.92028804 294.76408592 167.93133545 289.91925049 C167.94154828 284.97937422 167.94612881 280.03949315 167.95117188 275.09960938 C167.96191026 265.39972647 167.9789874 255.69986571 168 246 C167.00556885 246.00523682 166.0111377 246.01047363 164.98657227 246.01586914 C161.30966079 246.03392041 157.63275325 246.04543246 153.95581055 246.05493164 C152.36205386 246.05997157 150.76830181 246.0668035 149.17456055 246.07543945 C146.88849747 246.08751999 144.60249533 246.09323155 142.31640625 246.09765625 C141.59973282 246.10281754 140.88305939 246.10797882 140.14466858 246.11329651 C138.42936328 246.11349263 136.71418734 246.06192007 135 246 C133.30331793 244.30331793 133.88031007 242.18867982 133.87557983 239.92559814 C133.87917511 239.19983582 133.88277039 238.47407349 133.88647461 237.72631836 C133.88632858 236.96539383 133.88618256 236.2044693 133.8860321 235.42048645 C133.88673138 232.89357702 133.89452445 230.36674038 133.90234375 227.83984375 C133.90420788 226.0924941 133.9056318 224.34514393 133.90663147 222.59779358 C133.91045707 217.98968066 133.92028771 213.38159905 133.93133545 208.77349854 C133.94154866 204.07491479 133.9461289 199.37632601 133.95117188 194.67773438 C133.96190995 185.45180692 133.97950708 176.22591096 134 167 C145.22 167 156.44 167 168 167 C168 137.63 168 108.26 168 78 C138.96 78 109.92 78 80 78 C80 107.04 80 136.08 80 166 C96.335 166.495 96.335 166.495 113 167 C113.02255146 177.15266547 113.04091534 187.30531443 113.05181217 197.45799923 C113.05704089 202.17179733 113.06413834 206.88557747 113.07543945 211.59936523 C113.08626873 216.14455404 113.09227692 220.68972552 113.09487724 225.23492622 C113.09673142 226.97294958 113.10035189 228.71097194 113.10573006 230.44898796 C113.11294103 232.87478595 113.11399092 235.30051146 113.11352539 237.72631836 C113.11712067 238.45208069 113.12071594 239.17784302 113.12442017 239.92559814 C113.11405216 244.88594784 113.11405216 244.88594784 112 246 C109.6243148 246.0883967 107.27791326 246.11530305 104.90234375 246.09765625 C103.83905602 246.09553383 103.83905602 246.09553383 102.75428772 246.09336853 C100.48198288 246.08775443 98.20977525 246.07519963 95.9375 246.0625 C94.40039204 246.05748681 92.86328255 246.05292359 91.32617188 246.04882812 C87.55074358 246.03778042 83.77538829 246.02050641 80 246 C80.00222061 247.02508163 80.00444122 248.05016327 80.00672913 249.10630798 C80.02696041 258.7450696 80.04197207 268.38382694 80.05181217 278.02260494 C80.05704103 282.97853922 80.06413874 287.93445642 80.07543945 292.89038086 C80.08626822 297.66898836 80.09227681 302.44757938 80.09487724 307.2261982 C80.09673151 309.05353619 80.10035216 310.88087324 80.10573006 312.70820427 C80.11294036 315.25853329 80.11399095 317.80879337 80.11352539 320.35913086 C80.11712067 321.12229614 80.12071594 321.88546143 80.12442017 322.67175293 C80.11405216 327.88594784 80.11405216 327.88594784 79 329 C76.57142965 329.10029857 74.17128387 329.13618425 71.7421875 329.12939453 C70.98286926 329.13114685 70.22355103 329.13289917 69.44122314 329.13470459 C66.91912584 329.1391233 64.39709807 329.13618506 61.875 329.1328125 C60.13004544 329.13348553 58.38509096 329.13445555 56.64013672 329.13571167 C52.97818105 329.13718867 49.31624972 329.13503403 45.65429688 329.13037109 C40.94955508 329.1246738 36.24487032 329.1279528 31.54013062 329.13394356 C27.93546109 329.13754912 24.33080518 329.13641061 20.72613525 329.13381577 C18.99090569 329.13314648 17.25567491 329.13397496 15.52044678 329.13629532 C13.09953513 329.13882177 10.67871714 329.13498138 8.2578125 329.12939453 C7.53362122 329.13141876 6.80942993 329.13344299 6.06329346 329.13552856 C1.11426266 329.11426266 1.11426266 329.11426266 0 328 C-0.09737417 326.25371659 -0.12371462 324.50345062 -0.12304783 322.75445461 C-0.12503888 321.60990982 -0.12702993 320.46536502 -0.12908131 319.28613704 C-0.12616847 318.01281884 -0.12325563 316.73950065 -0.12025452 315.42759705 C-0.1206901 314.07379927 -0.12156477 312.72000157 -0.12284368 311.36620432 C-0.12509118 307.6287368 -0.1210639 303.89129765 -0.11606562 300.15383375 C-0.11176494 296.12995551 -0.11320727 292.10607899 -0.1139679 288.0821991 C-0.11449338 281.10479793 -0.11134409 274.12740607 -0.10573006 267.15000725 C-0.09761828 257.06174123 -0.09500017 246.97347974 -0.09374207 236.88521082 C-0.09155104 220.51941859 -0.08488958 204.15363133 -0.07543945 187.7878418 C-0.06626665 171.88582382 -0.05919663 155.98380719 -0.05493164 140.08178711 C-0.05466364 139.09231412 -0.05439565 138.10284112 -0.05411953 137.0833841 C-0.05204022 129.34556534 -0.05008326 121.60774656 -0.04816496 113.86992776 C-0.03872372 75.91328061 -0.01860721 37.9566459 0 0 Z " fill="#EB3839" transform="translate(1354,560)"/>
<path d="M0 0 C80.85 0 161.7 0 245 0 C245 108.57 245 217.14 245 329 C219.26 329 193.52 329 167 329 C166.67 301.61 166.34 274.22 166 246 C155.44 246 144.88 246 134 246 C131.56260138 243.56260138 131.76182303 242.26521757 131.74005127 238.93920898 C131.74567078 238.23731445 131.75129028 237.53541992 131.75708008 236.81225586 C131.75518173 236.07229874 131.75328339 235.33234161 131.75132751 234.56996155 C131.74761539 232.11814868 131.75832911 229.6666304 131.76953125 227.21484375 C131.77072281 225.51615941 131.77117626 223.81747441 131.7709198 222.11878967 C131.77248536 218.55693443 131.78078125 214.9951796 131.79418945 211.43334961 C131.81119231 206.85754413 131.81500348 202.28184896 131.81424427 197.70601559 C131.81451559 194.19827716 131.81999045 190.69056307 131.82724571 187.18283272 C131.83043756 185.49505358 131.83240098 183.80727167 131.83313942 182.11948967 C131.83529682 179.76572806 131.84402753 177.41208577 131.85473633 175.05834961 C131.85428314 174.35443085 131.85382996 173.65051208 131.85336304 172.92526245 C131.88552482 168.11447518 131.88552482 168.11447518 133 167 C144.22 167 155.44 167 167 167 C167 137.63 167 108.26 167 78 C137.63 78 108.26 78 78 78 C78 107.37 78 136.74 78 167 C89.22 167 100.44 167 112 167 C112.02255146 177.15266547 112.04091534 187.30531443 112.05181217 197.45799923 C112.05704089 202.17179733 112.06413834 206.88557747 112.07543945 211.59936523 C112.08626873 216.14455404 112.09227692 220.68972552 112.09487724 225.23492622 C112.09673142 226.97294958 112.10035189 228.71097194 112.10573006 230.44898796 C112.11294103 232.87478595 112.11399092 235.30051146 112.11352539 237.72631836 C112.11712067 238.45208069 112.12071594 239.17784302 112.12442017 239.92559814 C112.11405216 244.88594784 112.11405216 244.88594784 111 246 C100.44 246 89.88 246 79 246 C78.67 273.39 78.34 300.78 78 329 C52.26 329 26.52 329 0 329 C0 220.43 0 111.86 0 0 Z " fill="#1A191E" transform="translate(262,560)"/>
<path d="M0 0 C26.07 0 52.14 0 79 0 C79 82.5 79 165 79 250 C134.44 250 189.88 250 247 250 C248.46353965 252.92707929 248.14736797 255.87164879 248.14526367 259.08007812 C248.14862228 259.80867538 248.1519809 260.53727264 248.15544128 261.28794861 C248.16495993 263.70239962 248.16689472 266.11678138 248.16796875 268.53125 C248.17118025 270.20511911 248.17454423 271.87898794 248.17805481 273.55285645 C248.18404805 277.06340181 248.18589447 280.57392254 248.18530273 284.08447266 C248.185201 288.59071474 248.1988642 293.09679967 248.21607494 297.60300446 C248.22717238 301.06016775 248.22922266 304.51729275 248.22869301 307.97447205 C248.22987612 309.63631228 248.23431629 311.29815342 248.24202538 312.9599762 C248.25178174 315.28007145 248.2489649 317.59982151 248.24291992 319.91992188 C248.24853943 320.61089462 248.25415894 321.30186737 248.25994873 322.01377869 C248.22831721 326.77168279 248.22831721 326.77168279 246 329 C244.1818065 329.24954766 244.1818065 329.24954766 241.93044186 329.24888897 C241.07364454 329.25348777 240.21684723 329.25808656 239.33408636 329.26282471 C237.91392456 329.25510937 237.91392456 329.25510937 236.46507263 329.24723816 C234.96286221 329.25085978 234.96286221 329.25085978 233.43030411 329.25455457 C230.05299902 329.26021919 226.67588077 329.25150764 223.29858398 329.24291992 C220.88614856 329.24399211 218.4737134 329.24592985 216.0612793 329.24867249 C210.17634287 329.25302826 204.29145739 329.24806458 198.40653067 329.23882218 C191.55959995 329.22845415 184.71268146 329.22850794 177.86574436 329.22899476 C165.65340429 329.22949572 153.44109039 329.22032454 141.22875977 329.20581055 C129.36612471 329.19171937 117.50351268 329.18463988 105.64086914 329.18530273 C104.54478454 329.18536267 104.54478454 329.18536267 103.42655682 329.18542381 C102.33240626 329.18548435 102.33240626 329.18548435 101.21615165 329.1855461 C87.72798464 329.18623518 74.23982744 329.18035068 60.75166361 329.17139288 C55.9736423 329.16837109 51.19562279 329.16731268 46.41760063 329.16686058 C39.9933495 329.16610895 33.56911791 329.159784 27.14487457 329.14969444 C24.77967287 329.14676131 22.41446836 329.14554571 20.04926491 329.14612198 C16.83546481 329.1466089 13.62173419 329.14099442 10.40794373 329.13371277 C8.98443585 329.13603567 8.98443585 329.13603567 7.53217024 329.1384055 C1.11417848 329.11417848 1.11417848 329.11417848 0 328 C-0.09737417 326.25371659 -0.12371462 324.50345062 -0.12304783 322.75445461 C-0.12503888 321.60990982 -0.12702993 320.46536502 -0.12908131 319.28613704 C-0.12616847 318.01281884 -0.12325563 316.73950065 -0.12025452 315.42759705 C-0.1206901 314.07379927 -0.12156477 312.72000157 -0.12284368 311.36620432 C-0.12509118 307.6287368 -0.1210639 303.89129765 -0.11606562 300.15383375 C-0.11176494 296.12995551 -0.11320727 292.10607899 -0.1139679 288.0821991 C-0.11449338 281.10479793 -0.11134409 274.12740607 -0.10573006 267.15000725 C-0.09761828 257.06174123 -0.09500017 246.97347974 -0.09374207 236.88521082 C-0.09155104 220.51941859 -0.08488958 204.15363133 -0.07543945 187.7878418 C-0.06626665 171.88582382 -0.05918517 155.98380719 -0.05493164 140.08178711 C-0.05466892 139.10231528 -0.05440619 138.12284346 -0.05413551 137.11369067 C-0.05283051 132.20018594 -0.0515668 127.2866812 -0.05032361 122.37317646 C-0.03994941 81.58211322 -0.02151026 40.79105918 0 0 Z " fill="#E93839" transform="translate(1094,560)"/>
<path d="M0 0 C26.07 0 52.14 0 79 0 C79 82.5 79 165 79 250 C134.11 250 189.22 250 246 250 C246 276.07 246 302.14 246 329 C164.82 329 83.64 329 0 329 C0 220.43 0 111.86 0 0 Z " fill="#1A191E" transform="translate(0,560)"/>
<path d="M0 0 C41.58 0 83.16 0 126 0 C126 8.91 126 17.82 126 27 C123.30969851 29.69030149 121.25062274 29.23656887 117.59541321 29.24884033 C116.69558212 29.24164978 115.79575104 29.23445923 114.86865234 29.22705078 C113.92226395 29.22734283 112.97587555 29.22763489 112.00080872 29.22793579 C108.86242609 29.2265388 105.72427882 29.21096024 102.5859375 29.1953125 C100.4140333 29.19158368 98.24212743 29.18873609 96.07022095 29.18673706 C90.34581888 29.17909027 84.62151784 29.15943281 78.89715576 29.1373291 C73.05905525 29.11689317 67.22093845 29.10774017 61.3828125 29.09765625 C49.9218234 29.07618789 38.4609359 29.04099724 27 29 C26.67 35.93 26.34 42.86 26 50 C59 50 92 50 126 50 C126 75.41 126 100.82 126 127 C84.42 127 42.84 127 0 127 C0 118.09 0 109.18 0 100 C32.34 100 64.68 100 98 100 C98 92.74 98 85.48 98 78 C65.66 77.67 33.32 77.34 0 77 C0 51.59 0 26.18 0 0 Z " fill="#1A191E" transform="translate(0,913)"/>
<path d="M0 0 C41.58 0 83.16 0 126 0 C126 41.91 126 83.82 126 127 C84.42 127 42.84 127 0 127 C0 85.09 0 43.18 0 0 Z M99 27 C99 27.66 99 28.32 99 29 C98.12525528 28.98525131 97.25051056 28.97050262 96.34925842 28.95530701 C88.12331868 28.81750738 79.89731836 28.68453205 71.6712122 28.5570364 C67.44164764 28.49131092 63.21213074 28.42369094 58.98266602 28.35180664 C54.90437755 28.28256036 50.82603906 28.21820518 46.74761772 28.15730476 C45.18819797 28.13314686 43.62880494 28.10719798 42.06944466 28.07946587 C39.89277455 28.04105521 37.71609819 28.00889638 35.53930664 27.97827148 C34.29798477 27.95828598 33.0566629 27.93830048 31.77772522 27.91770935 C29.09190278 27.67947798 29.09190278 27.67947798 28 29 C27.90567015 31.20867831 27.88257569 33.42041521 27.88647461 35.63110352 C27.88635407 36.33498923 27.88623354 37.03887495 27.88610935 37.76409054 C27.88685833 40.05239411 27.89448583 42.34061717 27.90234375 44.62890625 C27.90381322 46.03771933 27.9048339 47.44653295 27.90539551 48.85534668 C27.91064784 54.09107276 27.92460893 59.32678716 27.9375 64.5625 C27.958125 76.256875 27.97875 87.95125 28 100 C51.76 100 75.52 100 100 100 C100 75.91 100 51.82 100 27 C99.67 27 99.34 27 99 27 Z " fill="#1A191E" transform="translate(1474,913)"/>
<path d="M0 0 C33.66 0 67.32 0 102 0 C102 0.66 102 1.32 102 2 C102.99 2.33 103.98 2.66 105 3 C105 3.66 105 4.32 105 5 C105.66 5 106.32 5 107 5 C108.35386936 6.65002828 109.68678142 8.3174387 111 10 C111.99 10.495 111.99 10.495 113 11 C113 11.66 113 12.32 113 13 C113.99 13.33 114.98 13.66 116 14 C116 14.66 116 15.32 116 16 C116.66 16 117.32 16 118 16 C119.35386936 17.65002828 120.68678142 19.3174387 122 21 C122.66 21.33 123.32 21.66 124 22 C124 22.66 124 23.32 124 24 C124.66 24 125.32 24 126 24 C127.47988792 26.95977584 127.13010399 29.95978009 127.11352539 33.20361328 C127.11367142 33.9451767 127.11381744 34.68674011 127.1139679 35.45077515 C127.11327 37.90731713 127.10548334 40.36378373 127.09765625 42.8203125 C127.09579163 44.5213924 127.09436794 46.22247284 127.09336853 47.92355347 C127.08954678 52.40506467 127.0797194 56.88654357 127.06866455 61.36804199 C127.05844308 65.9393673 127.05386933 70.51069781 127.04882812 75.08203125 C127.03809685 84.05470171 127.02102451 93.02734817 127 102 C125.515 102.495 125.515 102.495 124 103 C124 103.66 124 104.32 124 105 C123.34 105 122.68 105 122 105 C121.505 106.485 121.505 106.485 121 108 C120.34 108 119.68 108 119 108 C118.505 109.485 118.505 109.485 118 111 C117.34 111 116.68 111 116 111 C115.505 112.485 115.505 112.485 115 114 C114.34 114 113.68 114 113 114 C112.505 115.98 112.505 115.98 112 118 C111.360625 118.103125 110.72125 118.20625 110.0625 118.3125 C109.381875 118.539375 108.70125 118.76625 108 119 C107.505 120.485 107.505 120.485 107 122 C106.34 122 105.68 122 105 122 C104.505 123.485 104.505 123.485 104 125 C103.34 125 102.68 125 102 125 C102 125.66 102 126.32 102 127 C68.34 127 34.68 127 0 127 C0 85.09 0 43.18 0 0 Z M27 28 C27 51.76 27 75.52 27 100 C37.580625 100.144375 48.16125 100.28875 59.0625 100.4375 C62.392229 100.50122803 65.72195801 100.56495605 69.15258789 100.63061523 C71.80092393 100.6510654 74.44928201 100.66890155 77.09765625 100.68359375 C77.77847763 100.70188736 78.45929901 100.72018097 79.16075134 100.73902893 C88.35987918 101.1346364 88.35987918 101.1346364 96.38867188 97.29296875 C100.50048493 92.09843716 99.86878015 85.94658875 99.68359375 79.62890625 C99.67368912 78.35144028 99.66378448 77.0739743 99.65357971 75.75779724 C99.62113253 72.38134055 99.55840298 69.00827092 99.48065186 65.63275146 C99.40869586 62.18059371 99.37700005 58.72808413 99.34179688 55.27539062 C99.26476228 48.51599993 99.14773398 41.75819526 99 35 C98.34 35 97.68 35 97 35 C96.7525 34.401875 96.505 33.80375 96.25 33.1875 C94.75701463 30.5747756 93.5853054 29.54460235 91 28 C88.01269932 27.56626995 88.01269932 27.56626995 84.67089844 27.65942383 C82.72256104 27.65996765 82.72256104 27.65996765 80.73486328 27.66052246 C79.35969609 27.67562762 77.98453318 27.69112727 76.609375 27.70703125 C75.35527832 27.71005249 74.10118164 27.71307373 72.80908203 27.71618652 C68.12263769 27.73188722 63.43631061 27.7737711 58.75 27.8125 C48.2725 27.874375 37.795 27.93625 27 28 Z " fill="#19181D" transform="translate(944,913)"/>
<path d="M0 0 C8.91 0 17.82 0 27 0 C27 33 27 66 27 100 C51.09 100 75.18 100 100 100 C100 67 100 34 100 0 C108.58 0 117.16 0 126 0 C127 1 127 1 127.12304783 3.09083652 C127.12212604 4.01908206 127.12120424 4.94732759 127.12025452 5.90370178 C127.12232076 7.49271223 127.12232076 7.49271223 127.12442875 9.11382389 C127.11903159 10.87904723 127.11903159 10.87904723 127.11352539 12.67993164 C127.11364593 13.92898757 127.11376646 15.1780435 127.11389065 16.46494961 C127.11326559 19.85449249 127.10830646 23.24397481 127.10128021 26.63350677 C127.09560017 29.80999151 127.0953179 32.98647465 127.09460449 36.16296387 C127.08934978 45.46281392 127.07538873 54.7626574 127.0625 64.0625 C127.041875 84.831875 127.02125 105.60125 127 127 C85.09 127 43.18 127 0 127 C0 85.09 0 43.18 0 0 Z " fill="#1A191E" transform="translate(629,913)"/>
<path d="M0 0 C1.05866776 -0.00426498 2.11733551 -0.00852997 3.20808411 -0.01292419 C4.96526764 -0.01224442 4.96526764 -0.01224442 6.75794983 -0.0115509 C8.59677483 -0.01658882 8.59677483 -0.01658882 10.4727478 -0.02172852 C13.84463501 -0.02962441 17.21646067 -0.03290746 20.58835292 -0.0335443 C23.39912358 -0.03449178 26.20988827 -0.03816822 29.02065665 -0.0417164 C35.64988763 -0.04986857 42.27910503 -0.05229994 48.90834045 -0.05158997 C55.75604324 -0.05098899 62.6036673 -0.06154298 69.45135015 -0.07733363 C75.32226971 -0.09039148 81.19316349 -0.0957746 87.06409746 -0.09513456 C90.57415153 -0.09487905 94.08413568 -0.09775921 97.59417534 -0.10831261 C101.50687131 -0.11975474 105.41945856 -0.11525755 109.33216858 -0.10920715 C111.08631577 -0.11763641 111.08631577 -0.11763641 112.87590027 -0.12623596 C114.46813164 -0.11994423 114.46813164 -0.11994423 116.0925293 -0.11352539 C117.01855422 -0.11407016 117.94457914 -0.11461493 118.89866543 -0.1151762 C121.10975647 0.13371277 121.10975647 0.13371277 123.10975647 2.13371277 C123.56631444 6.09420099 123.43377689 10.08745087 123.42225647 14.07121277 C123.43836975 15.18174011 123.45448303 16.29226746 123.47108459 17.43644714 C123.47172913 18.50056824 123.47237366 19.56468933 123.47303772 20.66105652 C123.47601868 21.63808533 123.47899963 22.61511414 123.48207092 23.62174988 C123.03780103 26.61918784 122.47105234 27.30532909 120.10975647 29.13371277 C118.00265503 29.49447632 118.00265503 29.49447632 115.54652405 29.47428894 C114.62579605 29.47406235 113.70506805 29.47383575 112.75643921 29.47360229 C111.76572922 29.45811844 110.77501923 29.44263458 109.75428772 29.42668152 C108.7375145 29.42243668 107.72074127 29.41819183 106.67315674 29.41381836 C103.42258835 29.39701274 100.17263777 29.35935659 96.92225647 29.32121277 C94.71979146 29.30616839 92.51731674 29.29247956 90.31483459 29.28019714 C84.91293075 29.24710313 79.51138774 29.196885 74.10975647 29.13371277 C74.09944901 30.34671555 74.08914154 31.55971832 74.07852173 32.80947876 C73.98096809 44.21423195 73.87825162 55.61892838 73.77041721 67.02358913 C73.71513981 72.88750725 73.66171225 78.75143031 73.61244202 84.61540222 C73.56486935 90.26937422 73.5125294 95.92328343 73.45681572 101.57718086 C73.43635989 103.73943084 73.41765228 105.90169805 73.40068245 108.0639782 C73.37670963 111.08134602 73.34664572 114.09859396 73.31507874 117.1158905 C73.30932327 118.01931686 73.30356781 118.92274323 73.29763794 119.85354614 C73.22380863 126.01966061 73.22380863 126.01966061 72.10975647 127.13371277 C62.86975647 127.13371277 53.62975647 127.13371277 44.10975647 127.13371277 C43.61475647 78.62371277 43.61475647 78.62371277 43.10975647 29.13371277 C27.92975647 29.13371277 12.74975647 29.13371277 -2.89024353 29.13371277 C-3.88024353 28.47371277 -4.87024353 27.81371277 -5.89024353 27.13371277 C-6.24668884 24.53581238 -6.24668884 24.53581238 -6.21836853 21.28605652 C-6.21321228 20.12396667 -6.20805603 18.96187683 -6.20274353 17.76457214 C-6.18211853 16.54576355 -6.16149353 15.32695496 -6.14024353 14.07121277 C-6.13508728 12.84853699 -6.12993103 11.62586121 -6.12461853 10.36613464 C-6.0326233 0.0109218 -6.0326233 0.0109218 0 0 Z " fill="#19181D" transform="translate(318.89024353027344,912.8662872314453)"/>
<path d="M0 0 C1.21042969 -0.00128906 2.42085937 -0.00257813 3.66796875 -0.00390625 C4.94285156 -0.00003906 6.21773437 0.00382813 7.53125 0.0078125 C9.44357422 0.00201172 9.44357422 0.00201172 11.39453125 -0.00390625 C13.21017578 -0.00197266 13.21017578 -0.00197266 15.0625 0 C16.18205078 0.00112793 17.30160156 0.00225586 18.45507812 0.00341797 C21.03125 0.1328125 21.03125 0.1328125 22.03125 1.1328125 C22.12730864 2.76504706 22.15312821 4.4014564 22.15150452 6.03651428 C22.15287918 7.09807236 22.15425385 8.15963043 22.15567017 9.25335693 C22.15207489 10.42795471 22.14847961 11.60255249 22.14477539 12.81274414 C22.14492142 14.04184006 22.14506744 15.27093597 22.1452179 16.53727722 C22.14463892 19.91729922 22.13960964 23.29726079 22.13264394 26.67727208 C22.12640988 30.20602444 22.12580656 33.73477753 22.12461853 37.26353455 C22.12150537 43.95004369 22.11329218 50.63653656 22.10326904 57.32303852 C22.09210744 64.93355553 22.08659733 72.5440733 22.08157361 80.15459645 C22.07110956 95.81401124 22.05351041 111.47340977 22.03125 127.1328125 C18.06194011 127.15747131 14.09265966 127.17565273 10.12329102 127.18774414 C8.77204614 127.19278307 7.42080674 127.19961427 6.06958008 127.20825195 C4.13104566 127.22033669 2.192472 127.22551078 0.25390625 127.23046875 C-1.49780884 127.23832397 -1.49780884 127.23832397 -3.28491211 127.24633789 C-5.96875 127.1328125 -5.96875 127.1328125 -6.96875 126.1328125 C-7.06695173 124.51556865 -7.09506935 122.89402617 -7.09573364 121.27380371 C-7.09855347 120.22210495 -7.10137329 119.17040619 -7.10427856 118.08683777 C-7.10225433 116.92316177 -7.1002301 115.75948578 -7.09814453 114.56054688 C-7.09989685 113.34281082 -7.10164917 112.12507477 -7.10345459 110.87043762 C-7.10711281 107.52134134 -7.10623966 104.17230648 -7.1030755 100.82321358 C-7.10055154 97.32562296 -7.10288954 93.82803505 -7.10446167 90.33044434 C-7.10628326 84.45580573 -7.10387734 78.58117967 -7.09912109 72.70654297 C-7.09367849 65.90542199 -7.09544116 59.10433099 -7.1009475 52.30321074 C-7.10547893 46.47392122 -7.10612903 40.64464076 -7.10350883 34.81535006 C-7.10194622 31.32938425 -7.10175185 27.84343256 -7.10504532 24.35746765 C-7.10845835 20.47332587 -7.1037338 16.58921792 -7.09814453 12.70507812 C-7.10016876 11.54140213 -7.10219299 10.37772614 -7.10427856 9.17878723 C-7.10145874 8.12708847 -7.09863892 7.07538971 -7.09573364 5.99182129 C-7.09535662 5.07224892 -7.09497959 4.15267654 -7.09459114 3.20523834 C-6.83037032 -1.14610541 -3.66582679 0.00369326 0 0 Z " fill="#17161A" transform="translate(1264.96875,912.8671875)"/>
<path d="M0 0 C0.66 0 1.32 0 2 0 C2 108.24 2 216.48 2 328 C26.75 328 51.5 328 77 328 C77 299.95 77 271.9 77 243 C88.55 243 100.1 243 112 243 C112 218.25 112 193.5 112 168 C100.45 168 88.9 168 77 168 C77 137.64 77 107.28 77 76 C107.36 76 137.72 76 169 76 C169 106.03 169 136.06 169 167 C168.67 167 168.34 167 168 167 C168 137.63 168 108.26 168 78 C138.96 78 109.92 78 80 78 C80 107.04 80 136.08 80 166 C96.335 166.495 96.335 166.495 113 167 C113.02255146 177.15266547 113.04091534 187.30531443 113.05181217 197.45799923 C113.05704089 202.17179733 113.06413834 206.88557747 113.07543945 211.59936523 C113.08626873 216.14455404 113.09227692 220.68972552 113.09487724 225.23492622 C113.09673142 226.97294958 113.10035189 228.71097194 113.10573006 230.44898796 C113.11294103 232.87478595 113.11399092 235.30051146 113.11352539 237.72631836 C113.11712067 238.45208069 113.12071594 239.17784302 113.12442017 239.92559814 C113.11405216 244.88594784 113.11405216 244.88594784 112 246 C109.6243148 246.0883967 107.27791326 246.11530305 104.90234375 246.09765625 C103.83905602 246.09553383 103.83905602 246.09553383 102.75428772 246.09336853 C100.48198288 246.08775443 98.20977525 246.07519963 95.9375 246.0625 C94.40039204 246.05748681 92.86328255 246.05292359 91.32617188 246.04882812 C87.55074358 246.03778042 83.77538829 246.02050641 80 246 C80.00222061 247.02508163 80.00444122 248.05016327 80.00672913 249.10630798 C80.02696041 258.7450696 80.04197207 268.38382694 80.05181217 278.02260494 C80.05704103 282.97853922 80.06413874 287.93445642 80.07543945 292.89038086 C80.08626822 297.66898836 80.09227681 302.44757938 80.09487724 307.2261982 C80.09673151 309.05353619 80.10035216 310.88087324 80.10573006 312.70820427 C80.11294036 315.25853329 80.11399095 317.80879337 80.11352539 320.35913086 C80.11712067 321.12229614 80.12071594 321.88546143 80.12442017 322.67175293 C80.11405216 327.88594784 80.11405216 327.88594784 79 329 C76.57142965 329.10029857 74.17128387 329.13618425 71.7421875 329.12939453 C70.98286926 329.13114685 70.22355103 329.13289917 69.44122314 329.13470459 C66.91912584 329.1391233 64.39709807 329.13618506 61.875 329.1328125 C60.13004544 329.13348553 58.38509096 329.13445555 56.64013672 329.13571167 C52.97818105 329.13718867 49.31624972 329.13503403 45.65429688 329.13037109 C40.94955508 329.1246738 36.24487032 329.1279528 31.54013062 329.13394356 C27.93546109 329.13754912 24.33080518 329.13641061 20.72613525 329.13381577 C18.99090569 329.13314648 17.25567491 329.13397496 15.52044678 329.13629532 C13.09953513 329.13882177 10.67871714 329.13498138 8.2578125 329.12939453 C7.53362122 329.13141876 6.80942993 329.13344299 6.06329346 329.13552856 C1.11426266 329.11426266 1.11426266 329.11426266 0 328 C-0.09737417 326.25371659 -0.12371462 324.50345062 -0.12304783 322.75445461 C-0.12503888 321.60990982 -0.12702993 320.46536502 -0.12908131 319.28613704 C-0.12616847 318.01281884 -0.12325563 316.73950065 -0.12025452 315.42759705 C-0.1206901 314.07379927 -0.12156477 312.72000157 -0.12284368 311.36620432 C-0.12509118 307.6287368 -0.1210639 303.89129765 -0.11606562 300.15383375 C-0.11176494 296.12995551 -0.11320727 292.10607899 -0.1139679 288.0821991 C-0.11449338 281.10479793 -0.11134409 274.12740607 -0.10573006 267.15000725 C-0.09761828 257.06174123 -0.09500017 246.97347974 -0.09374207 236.88521082 C-0.09155104 220.51941859 -0.08488958 204.15363133 -0.07543945 187.7878418 C-0.06626665 171.88582382 -0.05918517 155.98380719 -0.05493164 140.08178711 C-0.05466892 139.10231528 -0.05440619 138.12284346 -0.05413551 137.11369067 C-0.05283051 132.20018594 -0.0515668 127.2866812 -0.05032361 122.37317646 C-0.03994941 81.58211418 -0.02232972 40.79105737 0 0 Z " fill="#481111" transform="translate(1354,560)"/>
<path d="M0 0 C0.66 0 1.32 0 2 0 C2 108.24 2 216.48 2 328 C27.08 328 52.16 328 78 328 C78 299.95 78 271.9 78 243 C89.22 243 100.44 243 112 243 C111.67 242.01 111.34 241.02 111 240 C110.91522644 237.75119909 110.89279261 235.49988966 110.90234375 233.24951172 C110.90453415 232.22713913 110.90453415 232.22713913 110.9067688 231.18411255 C110.91057131 229.70595449 110.91668422 228.22780097 110.92483521 226.74966049 C110.93758786 224.41359292 110.94411121 222.07758204 110.94897461 219.7414856 C110.96040535 214.78596494 110.97966021 209.83049104 111 204.875 C111.0235565 199.12693752 111.04395279 193.37890141 111.05593872 187.63080215 C111.06244698 185.32348355 111.07495301 183.01624555 111.08764648 180.70895386 C111.09127692 179.30320304 111.09462891 177.89745146 111.09765625 176.49169922 C111.10551147 174.64328934 111.10551147 174.64328934 111.11352539 172.75753784 C111.3155588 170.08975147 111.3155588 170.08975147 110 169 C99.11 168.67 88.22 168.34 77 168 C77 137.64 77 107.28 77 76 C107.36 76 137.72 76 169 76 C169 106.03 169 136.06 169 167 C168.67 167 168.34 167 168 167 C167.84634786 155.69122358 167.69816607 144.38239013 167.5570364 133.07345009 C167.49133627 127.82268973 167.42372677 122.57196821 167.35180664 117.32128906 C167.28251493 112.25743861 167.21816951 107.19354759 167.15730476 102.12958908 C167.13316367 100.1942045 167.10721728 98.25884159 167.07946587 96.3235054 C167.04100524 93.62016441 167.00886975 90.91681868 166.97827148 88.21337891 C166.95885246 87.00389336 166.95885246 87.00389336 166.93904114 85.76997375 C166.88594784 80.22810432 166.88594784 80.22810432 168 78 C138.96 78 109.92 78 80 78 C80 107.04 80 136.08 80 166 C96.335 166.495 96.335 166.495 113 167 C113.02255146 177.15266547 113.04091534 187.30531443 113.05181217 197.45799923 C113.05704089 202.17179733 113.06413834 206.88557747 113.07543945 211.59936523 C113.08626873 216.14455404 113.09227692 220.68972552 113.09487724 225.23492622 C113.09673142 226.97294958 113.10035189 228.71097194 113.10573006 230.44898796 C113.11294103 232.87478595 113.11399092 235.30051146 113.11352539 237.72631836 C113.11712067 238.45208069 113.12071594 239.17784302 113.12442017 239.92559814 C113.11405216 244.88594784 113.11405216 244.88594784 112 246 C109.6243148 246.0883967 107.27791326 246.11530305 104.90234375 246.09765625 C103.83905602 246.09553383 103.83905602 246.09553383 102.75428772 246.09336853 C100.48198288 246.08775443 98.20977525 246.07519963 95.9375 246.0625 C94.40039204 246.05748681 92.86328255 246.05292359 91.32617188 246.04882812 C87.55074358 246.03778042 83.77538829 246.02050641 80 246 C80.00222061 247.02508163 80.00444122 248.05016327 80.00672913 249.10630798 C80.02696041 258.7450696 80.04197207 268.38382694 80.05181217 278.02260494 C80.05704103 282.97853922 80.06413874 287.93445642 80.07543945 292.89038086 C80.08626822 297.66898836 80.09227681 302.44757938 80.09487724 307.2261982 C80.09673151 309.05353619 80.10035216 310.88087324 80.10573006 312.70820427 C80.11294036 315.25853329 80.11399095 317.80879337 80.11352539 320.35913086 C80.11712067 321.12229614 80.12071594 321.88546143 80.12442017 322.67175293 C80.11405216 327.88594784 80.11405216 327.88594784 79 329 C76.57142965 329.10029857 74.17128387 329.13618425 71.7421875 329.12939453 C70.98286926 329.13114685 70.22355103 329.13289917 69.44122314 329.13470459 C66.91912584 329.1391233 64.39709807 329.13618506 61.875 329.1328125 C60.13004544 329.13348553 58.38509096 329.13445555 56.64013672 329.13571167 C52.97818105 329.13718867 49.31624972 329.13503403 45.65429688 329.13037109 C40.94955508 329.1246738 36.24487032 329.1279528 31.54013062 329.13394356 C27.93546109 329.13754912 24.33080518 329.13641061 20.72613525 329.13381577 C18.99090569 329.13314648 17.25567491 329.13397496 15.52044678 329.13629532 C13.09953513 329.13882177 10.67871714 329.13498138 8.2578125 329.12939453 C7.53362122 329.13141876 6.80942993 329.13344299 6.06329346 329.13552856 C1.11426266 329.11426266 1.11426266 329.11426266 0 328 C-0.09737417 326.25371659 -0.12371462 324.50345062 -0.12304783 322.75445461 C-0.12503888 321.60990982 -0.12702993 320.46536502 -0.12908131 319.28613704 C-0.12616847 318.01281884 -0.12325563 316.73950065 -0.12025452 315.42759705 C-0.1206901 314.07379927 -0.12156477 312.72000157 -0.12284368 311.36620432 C-0.12509118 307.6287368 -0.1210639 303.89129765 -0.11606562 300.15383375 C-0.11176494 296.12995551 -0.11320727 292.10607899 -0.1139679 288.0821991 C-0.11449338 281.10479793 -0.11134409 274.12740607 -0.10573006 267.15000725 C-0.09761828 257.06174123 -0.09500017 246.97347974 -0.09374207 236.88521082 C-0.09155104 220.51941859 -0.08488958 204.15363133 -0.07543945 187.7878418 C-0.06626665 171.88582382 -0.05918517 155.98380719 -0.05493164 140.08178711 C-0.05466892 139.10231528 -0.05440619 138.12284346 -0.05413551 137.11369067 C-0.05283051 132.20018594 -0.0515668 127.2866812 -0.05032361 122.37317646 C-0.03994941 81.58211418 -0.02232972 40.79105737 0 0 Z " fill="#480B0B" transform="translate(832,560)"/>
<path d="M0 0 C0.33 0 0.66 0 1 0 C1 108.24 1 216.48 1 328 C81.19 328 161.38 328 244 328 C244 302.92 244 277.84 244 252 C188.89 252 133.78 252 77 252 C77 168.84 77 85.68 77 0 C77.66 0 78.32 0 79 0 C79 82.5 79 165 79 250 C134.11 250 189.22 250 246 250 C246 276.07 246 302.14 246 329 C164.82 329 83.64 329 0 329 C0 220.43 0 111.86 0 0 Z " fill="#060606" transform="translate(0,560)"/>
<path d="M0 0 C56.1 0 112.2 0 170 0 C170 15.18 170 30.36 170 46 C169 47 169 47 166.28446865 47.12304783 C164.44963972 47.12166514 164.44963972 47.12166514 162.57774353 47.12025452 C161.55965736 47.12153615 161.55965736 47.12153615 160.52100378 47.12284368 C158.23004074 47.12450041 155.93914974 47.118974 153.64819336 47.11352539 C152.01259869 47.11324353 150.3770039 47.11340122 148.7414093 47.1139679 C144.28705414 47.11425593 139.83272566 47.10835824 135.37837672 47.10139394 C130.72853526 47.09516139 126.07869326 47.09455668 121.42884827 47.09336853 C112.61738298 47.09025492 103.80593003 47.08204113 94.99447018 47.07201904 C83.09200777 47.05877385 71.18954201 47.05335824 59.28707409 47.04751682 C40.52470681 47.03810126 21.76236557 47.01818254 3 47 C3 71.75 3 96.5 3 122 C82.86 122 162.72 122 245 122 C245 122.33 245 122.66 245 123 C164.15 123 83.3 123 0 123 C0 96.93 0 70.86 0 44 C55.11 44 110.22 44 167 44 C166.67 30.14 166.34 16.28 166 2 C161.04242676 2.01047363 156.08485352 2.02094727 150.97705078 2.03173828 C134.63630587 2.06480965 118.29555969 2.08704395 101.95479012 2.10362434 C92.04292219 2.11394831 82.1310859 2.12802998 72.21923828 2.15087891 C63.58268586 2.17077856 54.94615635 2.18370828 46.30958164 2.18817699 C41.73422274 2.19079019 37.1589294 2.19695548 32.58359146 2.21146011 C28.28105381 2.22498999 23.978609 2.22923201 19.67605209 2.22621536 C18.09335578 2.22676759 16.5106565 2.23077232 14.92797852 2.23841095 C12.77406436 2.24830052 10.62050491 2.24599111 8.46658325 2.24050903 C7.25903444 2.24235262 6.05148563 2.24419621 4.80734444 2.24609566 C2 2 2 2 0 0 Z " fill="#691919" transform="translate(574,766)"/>
<path d="M0 0 C0.33 0 0.66 0 1 0 C1 25.74 1 51.48 1 78 C-54.11 78 -109.22 78 -166 78 C-166 94.5 -166 111 -166 128 C-160.976604 127.99476318 -155.95320801 127.98952637 -150.77758789 127.98413086 C-134.22528576 127.96759983 -117.67298331 127.95647991 -101.12067509 127.94818783 C-91.07987613 127.94302442 -81.03908497 127.93598088 -70.99829102 127.92456055 C-62.25004698 127.91461507 -53.50180859 127.9081469 -44.75355905 127.90591151 C-40.11845001 127.90460417 -35.48335713 127.90151685 -30.84825325 127.89426994 C-26.49074521 127.88751187 -22.13326008 127.8853826 -17.7757473 127.88689232 C-16.17167156 127.88661589 -14.56759509 127.88460951 -12.96352386 127.88079453 C-10.7830727 127.87586059 -8.60270943 127.87700058 -6.42225647 127.87974548 C-5.19903718 127.87882369 -3.97581789 127.8779019 -2.71553135 127.87695217 C0 128 0 128 1 129 C1.09777019 131.56718197 1.12995016 134.10743916 1.12025452 136.67506409 C1.12153615 137.8952861 1.12153615 137.8952861 1.12284368 139.14015907 C1.12450097 141.88716241 1.11897306 144.63410573 1.11352539 147.38110352 C1.11324355 149.34181721 1.1134012 151.302531 1.1139679 153.26324463 C1.11425598 158.60393334 1.10835752 163.94459981 1.10139394 169.28528333 C1.09516218 174.86002316 1.09455674 180.43476345 1.09336853 186.00950623 C1.09025469 196.57406091 1.08204059 207.13860531 1.07201904 217.70315546 C1.06085955 229.7271323 1.05534787 241.75110961 1.05032361 253.77509034 C1.03985801 278.51673261 1.02225755 303.25836573 1 328 C0.67 328 0.34 328 0 328 C0 262.99 0 197.98 0 131 C-55.77 131 -111.54 131 -169 131 C-169 77 -169 77 -168 76 C-165.83573826 75.90304682 -163.66824747 75.87813235 -161.5018158 75.87974548 C-160.81492457 75.87889106 -160.12803335 75.87803663 -159.42032725 75.87715632 C-157.10172545 75.87549955 -154.78319483 75.88102607 -152.46459961 75.88647461 C-150.80930076 75.88675646 -149.15400178 75.88659878 -147.498703 75.8860321 C-142.99063067 75.88574406 -138.48258471 75.89164181 -133.97451854 75.89860606 C-129.26862263 75.90483855 -124.56272618 75.90544332 -119.85682678 75.90663147 C-110.93911366 75.9097451 -102.02141273 75.91795891 -93.10370499 75.92798096 C-81.05774094 75.94122608 -69.01177359 75.94664175 -56.9658041 75.95248318 C-37.97719359 75.96189878 -18.98860882 75.98181748 0 76 C0 50.92 0 25.84 0 0 Z " fill="#901E1F" transform="translate(819,560)"/>
<path d="M0 0 C0.99 0 1.98 0 3 0 C3 108.24 3 216.48 3 328 C83.19 328 163.38 328 246 328 C246 328.33 246 328.66 246 329 C214.80547109 329.02278983 183.61094436 329.0404979 152.41640911 329.05106533 C148.73748562 329.05231611 145.05856214 329.05361042 141.37963867 329.05493164 C140.28098121 329.05532511 140.28098121 329.05532511 139.16012865 329.05572652 C127.28502582 329.06008333 115.4099278 329.06797094 103.53482784 329.0771528 C91.35893969 329.08648903 79.18305409 329.09205554 67.00716251 329.09408849 C59.48794689 329.09546379 51.96874489 329.0998147 44.44953346 329.10791647 C38.69350728 329.11380426 32.93748992 329.11445904 27.18146133 329.11310768 C24.81303384 329.1133842 22.44460585 329.11539185 20.07618141 329.11920547 C16.85790213 329.12413603 13.63968246 329.12300066 10.42140198 329.12025452 C8.99584774 329.12462378 8.99584774 329.12462378 7.54149443 329.12908131 C1.11412121 329.11412121 1.11412121 329.11412121 0 328 C-0.09737417 326.25371659 -0.12371462 324.50345062 -0.12304783 322.75445461 C-0.12503888 321.60990982 -0.12702993 320.46536502 -0.12908131 319.28613704 C-0.12616847 318.01281884 -0.12325563 316.73950065 -0.12025452 315.42759705 C-0.1206901 314.07379927 -0.12156477 312.72000157 -0.12284368 311.36620432 C-0.12509118 307.6287368 -0.1210639 303.89129765 -0.11606562 300.15383375 C-0.11176494 296.12995551 -0.11320727 292.10607899 -0.1139679 288.0821991 C-0.11449338 281.10479793 -0.11134409 274.12740607 -0.10573006 267.15000725 C-0.09761828 257.06174123 -0.09500017 246.97347974 -0.09374207 236.88521082 C-0.09155104 220.51941859 -0.08488958 204.15363133 -0.07543945 187.7878418 C-0.06626665 171.88582382 -0.05918517 155.98380719 -0.05493164 140.08178711 C-0.05466892 139.10231528 -0.05440619 138.12284346 -0.05413551 137.11369067 C-0.05283051 132.20018594 -0.0515668 127.2866812 -0.05032361 122.37317646 C-0.03994941 81.58211418 -0.02232972 40.79105737 0 0 Z " fill="#842525" transform="translate(1094,560)"/>
<path d="M0 0 C80.19 0 160.38 0 243 0 C243 0.66 243 1.32 243 2 C240.22054063 2.78571435 237.75957871 3.12402567 234.87454796 3.12025452 C234.05618599 3.12162887 233.23782403 3.12300322 232.39466321 3.12441921 C231.05430019 3.11902677 231.05430019 3.11902677 229.68685913 3.11352539 C228.73338486 3.11367425 227.7799106 3.11382311 226.79754317 3.11397648 C223.59466142 3.11328061 220.39183665 3.10543213 217.18896484 3.09765625 C214.89608289 3.09573764 212.60320051 3.09427358 210.31031799 3.0932312 C205.36939089 3.09006713 200.42848082 3.08379402 195.48756027 3.07516479 C187.68194454 3.06166985 179.87633452 3.05575424 172.07070923 3.05102539 C161.13372398 3.04368997 150.19674554 3.03357392 139.25976562 3.02050781 C138.56573901 3.01968 137.8717124 3.01885219 137.15665467 3.01799929 C132.22943633 3.01209795 127.30221815 3.00606356 122.375 3 C116.74316417 2.99307062 111.11132828 2.98620379 105.47949219 2.97949219 C104.43880978 2.97825 104.43880978 2.97825 103.37710349 2.97698271 C91.82146222 2.96331109 80.26582146 2.95358593 68.7101742 2.94658184 C60.94326433 2.94158487 53.17638027 2.93170379 45.40948081 2.91815186 C40.58784705 2.91071824 35.76621689 2.90738185 30.94457817 2.9051857 C28.70073292 2.9033059 26.45688839 2.89968967 24.21304893 2.89425278 C21.16174022 2.88708933 18.11048921 2.88599667 15.05917358 2.88647461 C14.16113679 2.88287965 13.2631 2.87928469 12.33784997 2.87558079 C8.03328182 2.7525367 8.03328182 2.7525367 4 4 C3.67 70.66 3.34 137.32 3 206 C2.01 206 1.02 206 0 206 C0 138.02 0 70.04 0 0 Z " fill="#DF3637" transform="translate(574,560)"/>
<path d="M0 0 C30.36 0 60.72 0 92 0 C92 30.03 92 60.06 92 91 C91.67 91 91.34 91 91 91 C91 61.63 91 32.26 91 2 C61.96 2 32.92 2 3 2 C3 31.04 3 60.08 3 90 C19.335 90.495 19.335 90.495 36 91 C36 116.41 36 141.82 36 168 C24.45 168 12.9 168 1 168 C1 195.72 1 223.44 1 252 C0.67 252 0.34 252 0 252 C0 223.95 0 195.9 0 167 C11.55 167 23.1 167 35 167 C35 142.25 35 117.5 35 92 C23.45 92 11.9 92 0 92 C0 61.64 0 31.28 0 0 Z " fill="#982627" transform="translate(1431,636)"/>
<path d="M0 0 C30.36 0 60.72 0 92 0 C92 30.03 92 60.06 92 91 C91.67 91 91.34 91 91 91 C90.84634786 79.69122358 90.69816607 68.38239013 90.5570364 57.07345009 C90.49133627 51.82268973 90.42372677 46.57196821 90.35180664 41.32128906 C90.28251493 36.25743861 90.21816951 31.19354759 90.15730476 26.12958908 C90.13316367 24.1942045 90.10721728 22.25884159 90.07946587 20.3235054 C90.04100524 17.62016441 90.00886975 14.91681868 89.97827148 12.21337891 C89.96532547 11.40705521 89.95237946 10.60073151 89.93904114 9.76997375 C89.88594784 4.22810432 89.88594784 4.22810432 91 2 C61.96 2 32.92 2 3 2 C3 31.04 3 60.08 3 90 C19.335 90.495 19.335 90.495 36 91 C36.02255146 101.15266547 36.04091534 111.30531443 36.05181217 121.45799923 C36.05704089 126.17179733 36.06413834 130.88557747 36.07543945 135.59936523 C36.08626873 140.14455404 36.09227692 144.68972552 36.09487724 149.23492622 C36.09673142 150.97294958 36.10035189 152.71097194 36.10573006 154.44898796 C36.11294103 156.87478595 36.11399092 159.30051146 36.11352539 161.72631836 C36.11712067 162.45208069 36.12071594 163.17784302 36.12442017 163.92559814 C36.11405216 168.88594784 36.11405216 168.88594784 35 170 C32.64768301 170.10081087 30.32538053 170.13972939 27.97265625 170.1328125 C27.26854111 170.13376923 26.56442596 170.13472595 25.838974 170.13571167 C24.34683137 170.13639341 22.85468579 170.13453952 21.36254883 170.13037109 C19.07561582 170.12503063 16.78887992 170.1303121 14.50195312 170.13671875 C13.05468707 170.13605781 11.60742113 170.13477632 10.16015625 170.1328125 C9.47365494 170.13483673 8.78715363 170.13686096 8.07984924 170.13894653 C3.22991527 170.11495764 3.22991527 170.11495764 1 169 C1 168.34 1 167.68 1 167 C12.22 167 23.44 167 35 167 C34.67 166.01 34.34 165.02 34 164 C33.91522644 161.75119909 33.89279261 159.49988966 33.90234375 157.24951172 C33.90380402 156.56792999 33.90526428 155.88634827 33.9067688 155.18411255 C33.91057131 153.70595449 33.91668422 152.22780097 33.92483521 150.74966049 C33.93758786 148.41359292 33.94411121 146.07758204 33.94897461 143.7414856 C33.96040535 138.78596494 33.97966021 133.83049104 34 128.875 C34.0235565 123.12693752 34.04395279 117.37890141 34.05593872 111.63080215 C34.06244698 109.32348355 34.07495301 107.01624555 34.08764648 104.70895386 C34.09127692 103.30320304 34.09462891 101.89745146 34.09765625 100.49169922 C34.10289307 99.25942596 34.10812988 98.02715271 34.11352539 96.75753784 C34.3155588 94.08975147 34.3155588 94.08975147 33 93 C22.11 92.67 11.22 92.34 0 92 C0 61.64 0 31.28 0 0 Z " fill="#811D1F" transform="translate(909,636)"/>
<path d="M0 0 C0.33 0 0.66 0 1 0 C1.02527002 6.53278786 1.04283292 13.06556321 1.05493164 19.59838867 C1.05997317 21.82267732 1.06680623 24.04696263 1.07543945 26.27124023 C1.08751298 29.46078309 1.09322996 32.65028229 1.09765625 35.83984375 C1.10281754 36.84087631 1.10797882 37.84190887 1.11329651 38.87327576 C1.11337204 39.79415482 1.11344757 40.71503387 1.11352539 41.66381836 C1.115746 42.47878281 1.11796661 43.29374725 1.12025452 44.13340759 C1 46 1 46 0 47 C-2.13893267 47.09692063 -4.28112967 47.12186803 -6.42225647 47.12025452 C-7.44034264 47.12153615 -7.44034264 47.12153615 -8.47899622 47.12284368 C-10.76995926 47.12450041 -13.06085026 47.118974 -15.35180664 47.11352539 C-16.98740131 47.11324353 -18.6229961 47.11340122 -20.2585907 47.1139679 C-24.71294586 47.11425593 -29.16727434 47.10835824 -33.62162328 47.10139394 C-38.27146474 47.09516139 -42.92130674 47.09455668 -47.57115173 47.09336853 C-56.38261702 47.09025492 -65.19406997 47.08204113 -74.00552982 47.07201904 C-85.90799223 47.05877385 -97.81045799 47.05335824 -109.71292591 47.04751682 C-128.47529319 47.03810126 -147.23763443 47.01818254 -166 47 C-166 71.75 -166 96.5 -166 122 C-86.14 122 -6.28 122 76 122 C76 122.33 76 122.66 76 123 C-4.85 123 -85.7 123 -169 123 C-169 97.59 -169 72.18 -169 46 C-113.56 45.67 -58.12 45.34 -1 45 C-0.505 22.725 -0.505 22.725 0 0 Z " fill="#A22222" transform="translate(743,766)"/>
<path d="M0 0 C41.58 0 83.16 0 126 0 C126 0.66 126 1.32 126 2 C85.08 2 44.16 2 2 2 C2.33 43.25 2.66 84.5 3 127 C2.01 127 1.02 127 0 127 C0 85.09 0 43.18 0 0 Z " fill="#101011" transform="translate(1474,913)"/>
<path d="M0 0 C41.58 0 83.16 0 126 0 C126 8.91 126 17.82 126 27 C123.30969851 29.69030149 121.25062274 29.23656887 117.59541321 29.24884033 C116.69558212 29.24164978 115.79575104 29.23445923 114.86865234 29.22705078 C113.92226395 29.22734283 112.97587555 29.22763489 112.00080872 29.22793579 C108.86242609 29.2265388 105.72427882 29.21096024 102.5859375 29.1953125 C100.4140333 29.19158368 98.24212743 29.18873609 96.07022095 29.18673706 C90.34581888 29.17909027 84.62151784 29.15943281 78.89715576 29.1373291 C73.05905525 29.11689317 67.22093845 29.10774017 61.3828125 29.09765625 C49.92183054 29.0761879 38.46092366 29.04203937 27 29 C26.67 28.34 26.34 27.68 26 27 C74.015 26.505 74.015 26.505 123 26 C123.33 18.08 123.66 10.16 124 2 C83.08 2 42.16 2 0 2 C0 1.34 0 0.68 0 0 Z " fill="#0A0A0B" transform="translate(0,913)"/>
<path d="M0 0 C1.22967184 0.00184359 2.45934368 0.00368717 3.72627831 0.00558662 C4.75177145 0.00302335 4.75177145 0.00302335 5.79798162 0.00040829 C8.0997369 -0.00289847 10.40120372 0.00813634 12.70293236 0.01904488 C14.34852657 0.01960874 15.99412128 0.01929293 17.63971519 0.01815987 C22.11677047 0.01758436 26.5937193 0.02937055 31.07074976 0.04330778 C35.74593922 0.05578229 40.42113092 0.05698304 45.09633446 0.0593586 C53.95382489 0.06558303 62.81126616 0.08200685 71.66873491 0.10205758 C83.63477189 0.12855912 95.60082226 0.13938143 107.56688118 0.15106201 C126.4265588 0.16988679 145.28613262 0.20972603 164.14580345 0.24609566 C164.14580345 25.98609566 164.14580345 51.72609566 164.14580345 78.24609566 C163.48580345 78.24609566 162.82580345 78.24609566 162.14580345 78.24609566 C162.14580345 53.16609566 162.14580345 28.08609566 162.14580345 2.24609566 C107.03580345 2.24609566 51.92580345 2.24609566 -4.85419655 2.24609566 C-2.85419655 0.24609566 -2.85419655 0.24609566 0 0 Z " fill="#0F0F10" transform="translate(81.85419654846191,809.7539043426514)"/>
<path d="M0 0 C0.33 0 0.66 0 1 0 C1.02312392 10.15266151 1.04091534 20.3053168 1.05181217 30.45799923 C1.05704089 35.17179733 1.06413834 39.88557747 1.07543945 44.59936523 C1.08626873 49.14455404 1.09227692 53.68972552 1.09487724 58.23492622 C1.09673142 59.97294958 1.10035189 61.71097194 1.10573006 63.44898796 C1.11294103 65.87478595 1.11399092 68.30051146 1.11352539 70.72631836 C1.11712067 71.45208069 1.12071594 72.17784302 1.12442017 72.92559814 C1.11405216 77.88594784 1.11405216 77.88594784 0 79 C-10.56 79 -21.12 79 -32 79 C-32.33 104.74 -32.66 130.48 -33 157 C-33.66 157 -34.32 157 -35 157 C-35.04627383 146.73423992 -35.08184393 136.46850452 -35.10362434 126.20266151 C-35.11407612 121.43617706 -35.12826064 116.66976379 -35.15087891 111.90332031 C-35.17255773 107.30625073 -35.18455812 102.70924976 -35.18975449 98.11213303 C-35.19345919 96.35539036 -35.20069322 94.59865159 -35.21146011 92.84193802 C-35.22590924 90.38754312 -35.22798073 87.93343427 -35.22705078 85.47900391 C-35.23424133 84.74748611 -35.24143188 84.01596832 -35.24884033 83.26228333 C-35.22810432 78.22810432 -35.22810432 78.22810432 -33 76 C-30.56255103 75.82511746 -28.2406392 75.76822595 -25.8046875 75.8046875 C-25.09724396 75.8075174 -24.38980042 75.81034729 -23.66091919 75.81326294 C-21.3987749 75.82446863 -19.13702485 75.84957321 -16.875 75.875 C-15.34245363 75.88502933 -13.80990106 75.89415526 -12.27734375 75.90234375 C-8.51807699 75.92440914 -4.75910536 75.95894104 -1 76 C-1.00222061 75.0626149 -1.00444122 74.1252298 -1.00672913 73.15943909 C-1.02696143 64.34478215 -1.04197256 55.5301299 -1.05181217 46.71545506 C-1.05704078 42.18325906 -1.06413801 37.65108173 -1.07543945 33.11889648 C-1.08626914 28.7487717 -1.09227701 24.37866492 -1.09487724 20.00852776 C-1.09673135 18.33749037 -1.10035168 16.66645403 -1.10573006 14.99542427 C-1.11294159 12.66302449 -1.1139909 10.33070007 -1.11352539 7.99829102 C-1.11712067 7.3005809 -1.12071594 6.60287079 -1.12442017 5.88401794 C-1.11405216 1.11405216 -1.11405216 1.11405216 0 0 Z " fill="#0C0C10" transform="translate(373,727)"/>
<path d="M0 0 C8.91 0 17.82 0 27 0 C27 33 27 66 27 100 C26.67 100 26.34 100 26 100 C26 67.66 26 35.32 26 2 C18.08 2 10.16 2 2 2 C2 43.25 2 84.5 2 127 C1.34 127 0.68 127 0 127 C0 85.09 0 43.18 0 0 Z " fill="#101014" transform="translate(629,913)"/>
<path d="M0 0 C1.05866776 -0.00426498 2.11733551 -0.00852997 3.20808411 -0.01292419 C4.96526764 -0.01224442 4.96526764 -0.01224442 6.75794983 -0.0115509 C8.59677483 -0.01658882 8.59677483 -0.01658882 10.4727478 -0.02172852 C13.84463501 -0.02962441 17.21646067 -0.03290746 20.58835292 -0.0335443 C23.39912358 -0.03449178 26.20988827 -0.03816822 29.02065665 -0.0417164 C35.64988763 -0.04986857 42.27910503 -0.05229994 48.90834045 -0.05158997 C55.75604324 -0.05098899 62.6036673 -0.06154298 69.45135015 -0.07733363 C75.32226971 -0.09039148 81.19316349 -0.0957746 87.06409746 -0.09513456 C90.57415153 -0.09487905 94.08413568 -0.09775921 97.59417534 -0.10831261 C101.50687131 -0.11975474 105.41945856 -0.11525755 109.33216858 -0.10920715 C111.08631577 -0.11763641 111.08631577 -0.11763641 112.87590027 -0.12623596 C114.46813164 -0.11994423 114.46813164 -0.11994423 116.0925293 -0.11352539 C117.01855422 -0.11407016 117.94457914 -0.11461493 118.89866543 -0.1151762 C121.10975647 0.13371277 121.10975647 0.13371277 123.10975647 2.13371277 C123.33680725 4.56388855 123.33680725 4.56388855 123.30506897 7.57902527 C123.295401 9.19357605 123.295401 9.19357605 123.28553772 10.84074402 C123.260401 12.53263855 123.260401 12.53263855 123.23475647 14.25871277 C123.22573303 15.39437683 123.21670959 16.53004089 123.20741272 17.70011902 C123.18378745 20.51152576 123.1508466 23.32251575 123.10975647 26.13371277 C122.44975647 26.46371277 121.78975647 26.79371277 121.10975647 27.13371277 C121.10975647 18.88371277 121.10975647 10.63371277 121.10975647 2.13371277 C79.85975647 2.13371277 38.60975647 2.13371277 -3.89024353 2.13371277 C-3.89024353 10.38371277 -3.89024353 18.63371277 -3.89024353 27.13371277 C-4.55024353 27.13371277 -5.21024353 27.13371277 -5.89024353 27.13371277 C-5.9191089 22.82122667 -5.93699608 18.50876515 -5.95274353 14.19621277 C-5.96112244 12.96451355 -5.96950134 11.73281433 -5.97813416 10.46379089 C-5.98135681 9.29396667 -5.98457947 8.12414246 -5.98789978 6.91886902 C-5.9931366 5.83484802 -5.99837341 4.75082703 -6.00376892 3.63395691 C-5.80451178 -0.75441369 -3.90452916 0.00706898 0 0 Z " fill="#0C0C0D" transform="translate(318.89024353027344,912.8662872314453)"/>
<path d="M0 0 C0.66 0 1.32 0 2 0 C2 25.08 2 50.16 2 76 C12.89 76 23.78 76 35 76 C35 104.05 35 132.1 35 161 C34.67 161 34.34 161 34 161 C33.67 134.27 33.34 107.54 33 80 C22.44 79.67 11.88 79.34 1 79 C-0.69668207 77.30331793 -0.11968993 75.18867982 -0.12442017 72.92559814 C-0.12082489 72.19983582 -0.11722961 71.47407349 -0.11352539 70.72631836 C-0.11367142 69.96539383 -0.11381744 69.2044693 -0.1139679 68.42048645 C-0.11326862 65.89357702 -0.10547555 63.36674038 -0.09765625 60.83984375 C-0.09579212 59.0924941 -0.0943682 57.34514393 -0.09336853 55.59779358 C-0.08954293 50.98968066 -0.07971229 46.38159905 -0.06866455 41.77349854 C-0.05845134 37.07491479 -0.0538711 32.37632601 -0.04882812 27.67773438 C-0.03809005 18.45180913 -0.02101313 9.22590716 0 0 Z " fill="#7A1F20" transform="translate(966,727)"/>
<path d="M0 0 C11.55 0 23.1 0 35 0 C34.67 0.66 34.34 1.32 34 2 C23.44 2 12.88 2 2 2 C2.00523682 4.47878662 2.01047363 6.95757324 2.01586914 9.51147461 C2.03240482 17.68184706 2.04347114 25.85222022 2.05181217 34.02260494 C2.05704103 38.97853922 2.06413874 43.93445642 2.07543945 48.89038086 C2.08626822 53.66898836 2.09227681 58.44757938 2.09487724 63.2261982 C2.09673151 65.05353619 2.10035216 66.88087324 2.10573006 68.70820427 C2.11294036 71.25853329 2.11399095 73.80879337 2.11352539 76.35913086 C2.11712067 77.12229614 2.12071594 77.88546143 2.12442017 78.67175293 C2.11405216 83.88594784 2.11405216 83.88594784 1 85 C-1.43396019 85.09498646 -3.83942952 85.12558417 -6.27368164 85.11352539 C-7.41506844 85.11374443 -7.41506844 85.11374443 -8.57951355 85.1139679 C-11.10642298 85.11326862 -13.63325962 85.10547555 -16.16015625 85.09765625 C-17.9075059 85.09579212 -19.65485607 85.0943682 -21.40220642 85.09336853 C-26.01031934 85.08954293 -30.61840095 85.07971229 -35.22650146 85.06866455 C-39.92508521 85.05845134 -44.62367399 85.0538711 -49.32226562 85.04882812 C-58.54819087 85.03809005 -67.77409284 85.02101313 -77 85 C-77 84.67 -77 84.34 -77 84 C-51.59 84 -26.18 84 0 84 C0 56.28 0 28.56 0 0 Z " fill="#5B1B1B" transform="translate(1432,804)"/>
<path d="M0 0 C0.66 0 1.32 0 2 0 C2 25.41 2 50.82 2 77 C12.89 77 23.78 77 35 77 C35 104.72 35 132.44 35 161 C34.67 161 34.34 161 34 161 C34 133.94 34 106.88 34 79 C23.11 79 12.22 79 1 79 C-0.69668207 77.30331793 -0.11968993 75.18867982 -0.12442017 72.92559814 C-0.12082489 72.19983582 -0.11722961 71.47407349 -0.11352539 70.72631836 C-0.11367142 69.96539383 -0.11381744 69.2044693 -0.1139679 68.42048645 C-0.11326862 65.89357702 -0.10547555 63.36674038 -0.09765625 60.83984375 C-0.09579212 59.0924941 -0.0943682 57.34514393 -0.09336853 55.59779358 C-0.08954293 50.98968066 -0.07971229 46.38159905 -0.06866455 41.77349854 C-0.05845134 37.07491479 -0.0538711 32.37632601 -0.04882812 27.67773438 C-0.03809005 18.45180913 -0.02101313 9.22590716 0 0 Z " fill="#882122" transform="translate(1488,727)"/>
<path d="M0 0 C16.5 0 33 0 50 0 C49.67 0.66 49.34 1.32 49 2 C33.82 2 18.64 2 3 2 C2.67 34.01 2.34 66.02 2 99 C0.515 99.495 0.515 99.495 -1 100 C-0.67 67 -0.34 34 0 0 Z " fill="#030303" transform="translate(390,940)"/>
<path d="M0 0 C0.33 0 0.66 0 1 0 C1.33 25.08 1.66 50.16 2 76 C17.84 76.495 17.84 76.495 34 77 C33.67 77.66 33.34 78.32 33 79 C28.47934572 79.049377 23.95884783 79.08570823 19.43798828 79.10986328 C17.89954902 79.11993118 16.36112893 79.13358646 14.82275391 79.15087891 C12.61355867 79.17509317 10.40461605 79.18647491 8.1953125 79.1953125 C7.50567413 79.20563507 6.81603577 79.21595764 6.10549927 79.22659302 C4.40199094 79.22699478 2.69914057 79.12191026 1 79 C-1.43739862 76.56260138 -1.23817697 75.26521757 -1.25994873 71.93920898 C-1.25432922 71.23731445 -1.24870972 70.53541992 -1.24291992 69.81225586 C-1.24481827 69.07229874 -1.24671661 68.33234161 -1.24867249 67.56996155 C-1.25238461 65.11814868 -1.24167089 62.6666304 -1.23046875 60.21484375 C-1.22927719 58.51615941 -1.22882374 56.81747441 -1.2290802 55.11878967 C-1.22751464 51.55693443 -1.21921875 47.9951796 -1.20581055 44.43334961 C-1.18880769 39.85754413 -1.18499652 35.28184896 -1.18575573 30.70601559 C-1.18548441 27.19827716 -1.18000955 23.69056307 -1.17275429 20.18283272 C-1.16956244 18.49505358 -1.16759902 16.80727167 -1.16686058 15.11948967 C-1.16470318 12.76572806 -1.15597247 10.41208577 -1.14526367 8.05834961 C-1.14571686 7.35443085 -1.14617004 6.65051208 -1.14663696 5.92526245 C-1.11447518 1.11447518 -1.11447518 1.11447518 0 0 Z " fill="#010102" transform="translate(395,727)"/>
<path d="M0 0 C0.66 0 1.32 0 2 0 C2 25.41 2 50.82 2 77 C1.01 77 0.02 77 -1 77 C-0.67 51.59 -0.34 26.18 0 0 Z " fill="#141415" transform="translate(124,963)"/>
</svg>
